<?xml version="1.0" encoding="UTF-8"?>
<svg width="1200" height="800" xmlns="http://www.w3.org/2000/svg">
  <defs>
    <style>
      .component-box { fill: #f0f0f0; stroke: #333; stroke-width: 2; }
      .esp32-box { fill: #e6f3ff; stroke: #0066cc; stroke-width: 3; }
      .servo-box { fill: #fff2e6; stroke: #ff6600; stroke-width: 2; }
      .sensor-box { fill: #e6ffe6; stroke: #009900; stroke-width: 2; }
      .power-line { stroke: #ff0000; stroke-width: 3; fill: none; }
      .ground-line { stroke: #000000; stroke-width: 3; fill: none; }
      .signal-line { stroke: #0066ff; stroke-width: 2; fill: none; }
      .i2c-line { stroke: #9900cc; stroke-width: 2; fill: none; }
      .text-label { font-family: Arial, sans-serif; font-size: 12px; fill: #333; }
      .pin-label { font-family: Arial, sans-serif; font-size: 10px; fill: #666; }
      .title { font-family: Arial, sans-serif; font-size: 18px; font-weight: bold; fill: #333; }
      .subtitle { font-family: Arial, sans-serif; font-size: 14px; fill: #666; }
      .power-label { font-family: Arial, sans-serif; font-size: 10px; fill: #ff0000; font-weight: bold; }
      .ground-label { font-family: Arial, sans-serif; font-size: 10px; fill: #000000; font-weight: bold; }
    </style>
  </defs>
  
  <!-- Title -->
  <text x="600" y="30" class="title" text-anchor="middle">ESP32 Rehabilitation Hand Exoskeleton - Circuit Diagram</text>
  <text x="600" y="50" class="subtitle" text-anchor="middle">FreeRTOS System with Biometric Monitoring</text>
  
  <!-- ESP32 Development Board -->
  <rect x="450" y="300" width="300" height="200" class="esp32-box" rx="10"/>
  <text x="600" y="320" class="text-label" text-anchor="middle" font-weight="bold">ESP32-WROOM-32</text>
  <text x="600" y="335" class="text-label" text-anchor="middle">Development Board</text>
  
  <!-- ESP32 Pins - Left Side -->
  <circle cx="460" cy="350" r="3" fill="#333"/>
  <text x="440" y="355" class="pin-label" text-anchor="end">GPIO19</text>
  
  <circle cx="460" cy="370" r="3" fill="#333"/>
  <text x="440" y="375" class="pin-label" text-anchor="end">GPIO22</text>
  
  <circle cx="460" cy="390" r="3" fill="#333"/>
  <text x="440" y="395" class="pin-label" text-anchor="end">GPIO23</text>
  
  <circle cx="460" cy="420" r="3" fill="#333"/>
  <text x="440" y="425" class="pin-label" text-anchor="end">GPIO21</text>
  
  <circle cx="460" cy="440" r="3" fill="#333"/>
  <text x="440" y="445" class="pin-label" text-anchor="end">GPIO18</text>
  
  <circle cx="460" cy="460" r="3" fill="#333"/>
  <text x="440" y="465" class="pin-label" text-anchor="end">GPIO4</text>
  
  <!-- ESP32 Pins - Right Side -->
  <circle cx="740" cy="350" r="3" fill="#ff0000"/>
  <text x="760" y="355" class="pin-label">Vin (5V)</text>
  
  <circle cx="740" cy="370" r="3" fill="#ff6600"/>
  <text x="760" y="375" class="pin-label">3.3V</text>
  
  <circle cx="740" cy="420" r="3" fill="#000"/>
  <text x="760" y="425" class="pin-label">GND</text>
  
  <circle cx="740" cy="440" r="3" fill="#000"/>
  <text x="760" y="445" class="pin-label">GND</text>
  
  <!-- USB Connector -->
  <rect x="570" y="280" width="60" height="15" class="component-box"/>
  <text x="600" y="292" class="pin-label" text-anchor="middle">USB-C</text>
  <text x="600" y="275" class="pin-label" text-anchor="middle">Programming & Power</text>
  
  <!-- Servo Motors -->
  <!-- Servo 1 -->
  <rect x="50" y="100" width="120" height="80" class="servo-box" rx="5"/>
  <text x="110" y="125" class="text-label" text-anchor="middle" font-weight="bold">Servo Motor 1</text>
  <text x="110" y="140" class="text-label" text-anchor="middle">SG90 / miuzei ms18</text>
  <text x="110" y="155" class="text-label" text-anchor="middle">Finger Control</text>
  
  <!-- Servo 1 Pins -->
  <circle cx="170" cy="120" r="3" fill="#ff0000"/>
  <text x="185" y="125" class="pin-label">VCC</text>
  <circle cx="170" cy="140" r="3" fill="#0066ff"/>
  <text x="185" y="145" class="pin-label">Signal</text>
  <circle cx="170" cy="160" r="3" fill="#000"/>
  <text x="185" y="165" class="pin-label">GND</text>
  
  <!-- Servo 2 -->
  <rect x="250" y="100" width="120" height="80" class="servo-box" rx="5"/>
  <text x="310" y="125" class="text-label" text-anchor="middle" font-weight="bold">Servo Motor 2</text>
  <text x="310" y="140" class="text-label" text-anchor="middle">SG90 / miuzei ms18</text>
  <text x="310" y="155" class="text-label" text-anchor="middle">Finger Control</text>
  
  <!-- Servo 2 Pins -->
  <circle cx="370" cy="120" r="3" fill="#ff0000"/>
  <text x="385" y="125" class="pin-label">VCC</text>
  <circle cx="370" cy="140" r="3" fill="#0066ff"/>
  <text x="385" y="145" class="pin-label">Signal</text>
  <circle cx="370" cy="160" r="3" fill="#000"/>
  <text x="385" y="165" class="pin-label">GND</text>
  
  <!-- Servo 3 -->
  <rect x="450" y="100" width="120" height="80" class="servo-box" rx="5"/>
  <text x="510" y="125" class="text-label" text-anchor="middle" font-weight="bold">Servo Motor 3</text>
  <text x="510" y="140" class="text-label" text-anchor="middle">SG90 / miuzei ms18</text>
  <text x="510" y="155" class="text-label" text-anchor="middle">Finger Control</text>
  
  <!-- Servo 3 Pins -->
  <circle cx="570" cy="120" r="3" fill="#ff0000"/>
  <text x="585" y="125" class="pin-label">VCC</text>
  <circle cx="570" cy="140" r="3" fill="#0066ff"/>
  <text x="585" y="145" class="pin-label">Signal</text>
  <circle cx="570" cy="160" r="3" fill="#000"/>
  <text x="585" y="165" class="pin-label">GND</text>
  
  <!-- Heart Rate Sensor -->
  <rect x="850" y="350" width="150" height="100" class="sensor-box" rx="5"/>
  <text x="925" y="375" class="text-label" text-anchor="middle" font-weight="bold">GY-MAX30102</text>
  <text x="925" y="390" class="text-label" text-anchor="middle">Heart Rate Sensor</text>
  <text x="925" y="405" class="text-label" text-anchor="middle">Pulse Oximetry</text>
  
  <!-- Sensor Pins -->
  <circle cx="850" cy="370" r="3" fill="#ff6600"/>
  <text x="830" y="375" class="pin-label" text-anchor="end">VCC</text>
  <circle cx="850" cy="390" r="3" fill="#000"/>
  <text x="830" y="395" class="pin-label" text-anchor="end">GND</text>
  <circle cx="850" cy="410" r="3" fill="#9900cc"/>
  <text x="830" y="415" class="pin-label" text-anchor="end">SCL</text>
  <circle cx="850" cy="430" r="3" fill="#9900cc"/>
  <text x="830" y="435" class="pin-label" text-anchor="end">SDA</text>
  <circle cx="850" cy="450" r="3" fill="#666"/>
  <text x="830" y="455" class="pin-label" text-anchor="end">INT</text>
  
  <!-- Power Rails -->
  <rect x="50" y="220" width="700" height="15" fill="#ffcccc" stroke="#ff0000" stroke-width="2"/>
  <text x="55" y="232" class="power-label">+5V Power Rail (Servo Power)</text>
  
  <rect x="50" y="240" width="700" height="15" fill="#ffe6cc" stroke="#ff6600" stroke-width="2"/>
  <text x="55" y="252" class="power-label">+3.3V Power Rail (Sensor Power)</text>
  
  <rect x="50" y="260" width="700" height="15" fill="#cccccc" stroke="#000" stroke-width="2"/>
  <text x="55" y="272" class="ground-label">Ground Rail (Common Ground)</text>
  
  <!-- Connections -->
  <!-- Power connections from ESP32 to rails -->
  <line x1="740" y1="350" x2="740" y2="227" class="power-line"/>
  <line x1="740" y1="370" x2="740" y2="247" stroke="#ff6600" stroke-width="3" fill="none"/>
  <line x1="740" y1="420" x2="740" y2="267" class="ground-line"/>
  
  <!-- Servo power connections -->
  <line x1="170" y1="120" x2="170" y2="227" class="power-line"/>
  <line x1="370" y1="120" x2="370" y2="227" class="power-line"/>
  <line x1="570" y1="120" x2="570" y2="227" class="power-line"/>
  
  <!-- Servo ground connections -->
  <line x1="170" y1="160" x2="170" y2="267" class="ground-line"/>
  <line x1="370" y1="160" x2="370" y2="267" class="ground-line"/>
  <line x1="570" y1="160" x2="570" y2="267" class="ground-line"/>
  
  <!-- Servo signal connections -->
  <line x1="170" y1="140" x2="170" y2="200" class="signal-line"/>
  <line x1="170" y1="200" x2="400" y2="200" class="signal-line"/>
  <line x1="400" y1="200" x2="400" y2="350" class="signal-line"/>
  <line x1="400" y1="350" x2="460" y2="350" class="signal-line"/>
  <text x="285" y="195" class="pin-label" text-anchor="middle">GPIO19</text>
  
  <line x1="370" y1="140" x2="370" y2="210" class="signal-line"/>
  <line x1="370" y1="210" x2="410" y2="210" class="signal-line"/>
  <line x1="410" y1="210" x2="410" y2="370" class="signal-line"/>
  <line x1="410" y1="370" x2="460" y2="370" class="signal-line"/>
  <text x="390" y="205" class="pin-label" text-anchor="middle">GPIO22</text>
  
  <line x1="570" y1="140" x2="570" y2="220" class="signal-line"/>
  <line x1="570" y1="220" x2="420" y2="220" class="signal-line"/>
  <line x1="420" y1="220" x2="420" y2="390" class="signal-line"/>
  <line x1="420" y1="390" x2="460" y2="390" class="signal-line"/>
  <text x="495" y="215" class="pin-label" text-anchor="middle">GPIO23</text>
  
  <!-- Sensor power connections -->
  <line x1="850" y1="370" x2="780" y2="370" stroke="#ff6600" stroke-width="3" fill="none"/>
  <line x1="780" y1="370" x2="780" y2="247" stroke="#ff6600" stroke-width="3" fill="none"/>
  
  <line x1="850" y1="390" x2="800" y2="390" class="ground-line"/>
  <line x1="800" y1="390" x2="800" y2="267" class="ground-line"/>
  
  <!-- I2C connections -->
  <line x1="850" y1="410" x2="780" y2="410" class="i2c-line"/>
  <line x1="780" y1="410" x2="780" y2="420" class="i2c-line"/>
  <line x1="780" y1="420" x2="460" y2="420" class="i2c-line"/>
  <text x="655" y="415" class="pin-label" text-anchor="middle">SCL (GPIO21)</text>
  
  <line x1="850" y1="430" x2="790" y2="430" class="i2c-line"/>
  <line x1="790" y1="430" x2="790" y2="440" class="i2c-line"/>
  <line x1="790" y1="440" x2="460" y2="440" class="i2c-line"/>
  <text x="655" y="435" class="pin-label" text-anchor="middle">SDA (GPIO18)</text>
  
  <line x1="850" y1="450" x2="800" y2="450" stroke="#666" stroke-width="2" fill="none"/>
  <line x1="800" y1="450" x2="800" y2="460" stroke="#666" stroke-width="2" fill="none"/>
  <line x1="800" y1="460" x2="460" y2="460" stroke="#666" stroke-width="2" fill="none"/>
  <text x="655" y="455" class="pin-label" text-anchor="middle">INT (GPIO4)</text>
  
  <!-- Legend -->
  <rect x="50" y="550" width="300" height="200" fill="none" stroke="#333" stroke-width="1"/>
  <text x="200" y="570" class="text-label" text-anchor="middle" font-weight="bold">Connection Legend</text>
  
  <line x1="70" y1="590" x2="120" y2="590" class="power-line"/>
  <text x="130" y="595" class="text-label">+5V Power (Servo Motors)</text>
  
  <line x1="70" y1="610" x2="120" y2="610" stroke="#ff6600" stroke-width="3" fill="none"/>
  <text x="130" y="615" class="text-label">+3.3V Power (Heart Rate Sensor)</text>
  
  <line x1="70" y1="630" x2="120" y2="630" class="ground-line"/>
  <text x="130" y="635" class="text-label">Ground (Common)</text>
  
  <line x1="70" y1="650" x2="120" y2="650" class="signal-line"/>
  <text x="130" y="655" class="text-label">PWM Signal (Servo Control)</text>
  
  <line x1="70" y1="670" x2="120" y2="670" class="i2c-line"/>
  <text x="130" y="675" class="text-label">I2C Communication (SCL/SDA)</text>
  
  <line x1="70" y1="690" x2="120" y2="690" stroke="#666" stroke-width="2" fill="none"/>
  <text x="130" y="695" class="text-label">Interrupt Signal (Optional)</text>
  
  <!-- Technical Specifications -->
  <rect x="400" y="550" width="350" height="200" fill="none" stroke="#333" stroke-width="1"/>
  <text x="575" y="570" class="text-label" text-anchor="middle" font-weight="bold">Technical Specifications</text>
  
  <text x="420" y="590" class="text-label">• ESP32: Dual-core 240MHz, WiFi + Bluetooth</text>
  <text x="420" y="605" class="text-label">• Servo Motors: 3x SG90/miuzei ms18 (9g micro)</text>
  <text x="420" y="620" class="text-label">• Heart Rate Sensor: GY-MAX30102 (I2C)</text>
  <text x="420" y="635" class="text-label">• Power: USB 5V (demo) or external 5V/3A</text>
  <text x="420" y="650" class="text-label">• Communication: BLE + WiFi/MQTT</text>
  <text x="420" y="665" class="text-label">• Architecture: FreeRTOS 8-task system</text>
  <text x="420" y="680" class="text-label">• Features: Real-time biometric monitoring</text>
  <text x="420" y="695" class="text-label">• License: GNU GPL v3.0</text>
  
  <!-- Safety Warning -->
  <rect x="800" y="550" width="350" height="200" fill="#fff5f5" stroke="#ff0000" stroke-width="2"/>
  <text x="975" y="570" class="text-label" text-anchor="middle" font-weight="bold" fill="#cc0000">⚠️ SAFETY WARNINGS</text>
  
  <text x="820" y="590" class="text-label" fill="#cc0000">• Disconnect power before wiring</text>
  <text x="820" y="605" class="text-label" fill="#cc0000">• Check polarity before connecting</text>
  <text x="820" y="620" class="text-label" fill="#cc0000">• Use 3.3V for sensor (NOT 5V)</text>
  <text x="820" y="635" class="text-label" fill="#cc0000">• External power recommended for production</text>
  <text x="820" y="650" class="text-label" fill="#cc0000">• Not certified for medical use</text>
  <text x="820" y="665" class="text-label" fill="#cc0000">• Implement safety interlocks</text>
  <text x="820" y="680" class="text-label" fill="#cc0000">• Monitor servo current draw</text>
  <text x="820" y="695" class="text-label" fill="#cc0000">• Test thoroughly before use</text>
</svg>
